<svg xmlns="http://www.w3.org/2000/svg" width="158" height="39.774" viewBox="0 0 158 39.774"><g data-name="Group 3"><path data-name="Rectangle 1" fill="#58b947" d="M0 0h37.288v39.774H0z"/><g data-name="Group 2"><g data-name="Group 7"><path data-name="Path 1" d="M21.769 33.805h-6.681a.855.855 0 010-1.71h6.681a.855.855 0 010 1.71" fill="#fff"/><path data-name="Path 2" d="M20.961 36.765h-5.066a.855.855 0 010-1.71h5.066a.855.855 0 010 1.71" fill="#fff"/><path data-name="Rectangle 2" fill="#fff" d="M15.743 14.658l.954-.116 1.217 10.043-.954.116z"/><path data-name="Rectangle 3" fill="#fff" d="M19.45 24.585l1.216-10.043.954.116L20.404 24.7z"/><path data-name="Path 3" d="M20.391 17.069a.681.681 0 00-1.186 0 .679.679 0 00-1.179 0 .677.677 0 00-1.175 0c-.46 0-.645-.417-.734-.617a1.42 1.42 0 00-.067-.137.282.282 0 00.211.091v-.961a.678.678 0 001.176 0 .677.677 0 001.176 0 .68.68 0 001.184 0 .682.682 0 001.187 0v.961a.282.282 0 00.21-.09 1.268 1.268 0 00-.068.138c-.089.2-.275.616-.735.616" fill="#fff"/><path data-name="Path 4" d="M26.442 12.235h4.993a13.541 13.541 0 00-5.919-6.46 27.881 27.881 0 00-6.239 1.548 16.576 16.576 0 00-2.305 1.075 9.715 9.715 0 011.7-.152 9.473 9.473 0 017.77 3.989" fill="#fff"/><path data-name="Path 5" d="M18.674 26.506a9.548 9.548 0 01-5.508-1.732 15.448 15.448 0 007.081 5.837 13.766 13.766 0 0010.494-6.726h-5.474a9.517 9.517 0 01-6.593 2.621" fill="#fff"/><path data-name="Path 6" d="M10.339 13.153a29.275 29.275 0 00-4 5.906c-.285.5-.584.988-.88 1.484a13.664 13.664 0 0013.217 10.145 15.3 15.3 0 01-7.174-7.41 8.906 8.906 0 01-1.161-10.124" fill="#fff"/><path data-name="Path 7" d="M18.781 4.054A13.537 13.537 0 005.063 17.371a12.966 12.966 0 00.207 2.309c.5-.94 1.034-1.852 1.508-2.592a27.4 27.4 0 014.105-5.068c.252-.244.51-.48.772-.711a24.007 24.007 0 012.528-1.95 25.611 25.611 0 015.387-2.743 22.678 22.678 0 015.225-1.207 13.97 13.97 0 00-6.015-1.351" fill="#fff"/><path data-name="Rectangle 8" fill="#333" d="M48.489.971h5.845v38.387h-5.845z"/><path data-name="Path 83" d="M69.941 39.751a6.574 6.574 0 01-5.66-2.846q-2.04-2.846-2.039-8.779V11.441q0-5.322 2.083-8.114t6.62-2.792q5.649 0 7.176 4.21a20.95 20.95 0 01.916 6.914v2.726h-5.453v-4.013a8.736 8.736 0 00-.556-3.708 2.14 2.14 0 00-2.094-1.069 2.227 2.227 0 00-2.17 1.276 11.24 11.24 0 00-.633 4.526v16.642a16.61 16.61 0 00.567 5.256 2.165 2.165 0 002.214 1.483 2.381 2.381 0 002.334-1.592 14.825 14.825 0 00.687-5.365v-5.17h-2.945v-4.256h8.048v20.96h-2.619l-.894-3.773a5.054 5.054 0 01-2.007 3.053 5.972 5.972 0 01-3.577 1.112" fill="#333"/><path data-name="Path 84" d="M86.945 39.359V.972h4.58l8.136 23.032-.414-10.469V.972h5.256v38.387h-4.144L92.005 15.52l.327 10.077v13.762z" fill="#333"/><path data-name="Rectangle 9" fill="#333" d="M112.891.971h5.845v38.387h-5.845z"/><path data-name="Path 85" d="M129.087 39.359V6.032h-4.493V.972h14.635v5.06h-4.318v33.327z" fill="#333"/><path data-name="Path 86" d="M144.87 39.359V.972h12.864V6.01h-7.023v11.167h6.674v4.929h-6.674V34.32h7.285v5.038z" fill="#333"/></g></g></g></svg>